<?xml version="1.0" encoding="UTF-8" standalone="no"?>
<svg
   version="1.0"
   width="54pt"
   height="79pt"
   viewBox="0 0 54 79"
  >
  <g
     transform="matrix(0.1,0,0,-0.1,0,79)"
     fill="currentColor"
     stroke="none"
     id="g1">
    <path
       d="M 43,780 C 3,764 0,742 0,475 0,169 -4,180 118,130 c 42,-18 84,-38 93,-46 9,-8 18,-12 21,-9 3,3 47,-12 99,-34 67,-28 98,-36 107,-29 8,7 12,47 12,134 0,76 15.72415,122.20163 10,124 -66.16101,20.78599 -10.46266,-13.07802 36,-1 45,-8 44,-14 44,251 0,236 -1,250 -19,260 -24,12 -446,13 -478,0 z M 487,529 c 2,-200 2,-207 -18,-212 -19,-5 -20,-1 -18,90 1,69 -2,98 -12,107 -8,7 -75,36 -149,65 -184,72 -189,74 -184,83 6,9 138,-40 142,-53 2,-5 8,-6 13,-3 6,3 15,1 22,-4 10,-8 81,-35 97,-37 3,0 10,-3 15,-7 21,-13 41,19 23,37 -3,4 -24,13 -45,21 l -38,14 54,-3 c 64,-2 78,15 29,37 l -33,14 38,1 c 36,1 51,21 27,36 -15,10 -373,6 -383,-4 -5,-5 -1,-15 7,-24 22,-22 20,-30 -4,-15 -21,13 -23,47 -5,60 6,5 102,7 215,5 l 205,-2 z M 373,673 c -7,-2 -19,-2 -25,0 -7,3 -2,5 12,5 14,0 19,-2 13,-5 z"
       id="path1"
       style="fill:currentColor;fill-opacity:1;stroke:none" />
  </g>
</svg>
