<svg version="1.0" xmlns="http://www.w3.org/2000/svg"
 width="53.000000pt" height="62.000000pt" viewBox="0 0 53.000000 62.000000"
 preserveAspectRatio="xMidYMid meet">

<g transform="translate(0.000000,62.000000) scale(0.100000,-0.100000)"
fill="currentColor" stroke="none">
<path d="M37 608 c-9 -7 -21 -26 -27 -41 -13 -37 -13 -440 1 -490 17 -64 32
-68 255 -69 l197 -1 9 24 c5 13 8 63 6 112 -3 78 3 109 14 75 2 -6 12 -9 21
-5 24 9 24 105 1 114 -9 3 -20 0 -26 -8 -8 -12 -9 -11 -5 1 2 8 0 24 -6 35
-10 20 -10 20 12 1 30 -27 43 -10 39 50 -3 47 -4 49 -31 47 -15 -1 -25 2 -22
8 3 5 2 16 -3 25 -8 15 -32 17 -201 15 -129 -2 -191 1 -191 8 0 7 58 11 174
11 147 0 175 2 180 15 3 9 0 18 -7 21 -7 2 -89 3 -182 2 -153 -3 -170 -5 -167
-20 4 -25 -16 -31 -23 -7 -13 40 6 44 213 46 190 2 197 3 200 23 3 20 -1 20
-205 20 -152 0 -214 -3 -226 -12z"/>
</g>
</svg>
