<?xml version="1.0" encoding="UTF-8" standalone="no"?>
<!-- Uploaded to: SVG Repo, www.svgrepo.com, Generator: SVG Repo Mixer Tools -->

<svg
   width="800"
   height="800"
   viewBox="0 0 24 24"
   fill="none"
   version="1.1"
   >
  <path
     style="fill:currentColor;fill-opacity:1;"
     d="m 12,1.25 c -0.77341,0 -1.403531,0.5002157 -1.898437,1.1464844 C 9.6066564,3.0427531 9.1313653,3.9068466 8.4980469,5.0429687 L 8.1699219,5.6308594 C 7.8099859,6.2765621 7.6637248,6.4943391 7.5507812,6.5800781 7.4378467,6.6658103 7.2087282,6.7383338 6.5097656,6.8964844 L 5.875,7.0410156 C 4.6451617,7.3192802 3.7081036,7.5239117 2.9609375,7.8183594 2.2137714,8.112807 1.5703486,8.589268 1.3417969,9.3242188 c -0.2285612,0.7349502 0.018411,1.4910832 0.453125,2.1816402 0.4347142,0.690558 1.0775876,1.431706 1.9160156,2.41211 l 0.4335937,0.505859 c 0.4765079,0.557198 0.6281463,0.762818 0.6757813,0.916016 0.047648,0.153224 0.0408,0.422516 -0.03125,1.166015 l -0.066406,0.675782 c -0.1267598,1.308098 -0.2280205,2.299163 -0.1914062,3.121093 0.036614,0.821931 0.2564862,1.588134 0.8710937,2.054688 0.6146058,0.466552 1.4225131,0.455238 2.1933594,0.234375 0.7708464,-0.220863 1.6414644,-0.630009 2.7929686,-1.160156 l 0.595703,-0.273438 C 11.638803,20.85689 11.87031,20.775391 12,20.775391 c 0.12969,0 0.361197,0.0815 1.015625,0.382812 l 0.595703,0.273438 c 1.151495,0.530147 2.022114,0.939293 2.792969,1.160156 0.770854,0.220863 1.57873,0.232153 2.193359,-0.234375 0.614598,-0.466565 0.834493,-1.232764 0.871094,-2.054688 0.0366,-0.821923 -0.06466,-1.812999 -0.191406,-3.121093 l -0.06641,-0.675782 c -0.072,-0.743502 -0.07889,-1.012686 -0.03125,-1.166015 0.04763,-0.153165 0.199265,-0.358797 0.675782,-0.916016 l 0.433593,-0.505859 C 21.127515,12.937562 21.77036,12.19642 22.205075,11.505859 22.63979,10.815299 22.886759,10.059162 22.6582,9.3242188 22.429647,8.5892541 21.78623,8.1128054 21.039062,7.8183594 20.291895,7.5239134 19.356749,7.3192798 18.126953,7.0410156 L 17.490234,6.8964844 C 16.791247,6.7383372 16.56219,6.6658413 16.449219,6.5800781 16.336294,6.4943805 16.190108,6.2766132 15.830078,5.6308594 L 15.501953,5.0429687 C 14.868654,3.9068447 14.39334,3.0427531 13.898438,2.3964844 13.403535,1.7502157 12.773407,1.25 12,1.25 Z"
     id="path1" />
</svg>
