<svg
   height="800"
   width="800"
   version="1.1"
   viewBox="0 0 24.125 24.125"
>
<g
   id="g1"
   transform="matrix(0.25881905,0.96592583,0.96592583,-0.25881905,-3.0130092,3.4536818)"
   style="fill:currentColor;fill-opacity:1;stroke:none">
	<path
   style="fill:currentColor;fill-opacity:1;stroke:none"
   d="m 9.043,13.852 2.582,1.728 c -0.622,4.832 -6.143,8.545 -6.143,8.545 L 3.448,22.227 Z M 20.677,0 20.638,0.584 C 19.964,10.754 14.71,15.6 14.656,15.649 l -0.143,0.129 -4.956,-3.31 6.442,-8.994 c 0.361,-0.566 1.615,-2.461 2.299,-2.597 0.18,-0.035 0.343,0.028 0.445,0.174 0.017,0.021 0.059,0.082 0.25,0.044 0.418,-0.083 1.032,-0.545 1.234,-0.716 z m -0.79,1.234 C 19.849091,0.94111283 19.349,1.532 19.089,1.583 18.687,1.664 18.47,1.502 18.366,1.374 18.011,1.504 17.089,2.689 16.411,3.753 l -6.153,8.587 4.202,2.806 c 0.488,-0.494 2.19,-2.374 3.617,-5.707 L 18.05,9.398 c 0,0 0.938121,-3.5644691 -0.174,-3.85 C 16.76412,5.2625309 16.921304,2.2344555 18.204,2.95 19.203304,3.5074557 19.981985,1.9678548 19.887,1.234 Z M 8.595,13.225 12.676,15.949 13.19,15.181 9.108,12.456 Z M 18.66,10.554 c 0,0 -0.471,1.026 -0.375,1.507 0.096,0.479 0.465,0.813 0.822,0.741 0.359,-0.072 0.572,-0.52 0.477,-0.999 -0.095,-0.481 -0.924,-1.249 -0.924,-1.249 z m 0.628,-1.402 c 0,0 -0.16,0.353 -0.129,0.517 0.033,0.165 0.158,0.278 0.282,0.254 C 19.564,9.899 19.637,9.746 19.605,9.581 19.573,9.416 19.288,9.152 19.288,9.152 Z"
   id="path1" />
</g>
</svg>
