<?xml version="1.0" encoding="UTF-8" standalone="no"?>
<!-- Uploaded to: SVG Repo, www.svgrepo.com, Generator: SVG Repo Mixer Tools -->

<svg
   width="800"
   height="800"
   viewBox="0 0 24 24"
   fill="none"
   version="1.1"
   >
  <path
     style="fill:currentColor;fill-opacity:1;"
     d="m 12,1.25 c -0.77341,0 -1.403531,0.5002157 -1.898437,1.1464844 C 9.6066564,3.0427531 9.1313653,3.9068466 8.4980469,5.0429687 L 8.1699219,5.6308594 C 7.8099859,6.2765621 7.6637248,6.4943391 7.5507812,6.5800781 7.4378467,6.6658103 7.2087282,6.7383338 6.5097656,6.8964844 L 5.875,7.0410156 C 4.6451617,7.3192802 3.7081036,7.5239117 2.9609375,7.8183594 2.2137714,8.112807 1.5703486,8.589268 1.3417969,9.3242188 c -0.2285612,0.7349502 0.018411,1.4910832 0.453125,2.1816402 0.4347142,0.690558 1.0775876,1.431706 1.9160156,2.41211 l 0.4335937,0.505859 c 0.4765079,0.557198 0.6281463,0.762818 0.6757813,0.916016 0.047648,0.153224 0.0408,0.422516 -0.03125,1.166015 l -0.066406,0.675782 c -0.1267598,1.308098 -0.2280205,2.299163 -0.1914062,3.121093 0.036614,0.821931 0.2564862,1.588134 0.8710937,2.054688 0.6146058,0.466552 1.4225131,0.455238 2.1933594,0.234375 0.7708464,-0.220863 1.6414644,-0.630009 2.7929686,-1.160156 l 0.595703,-0.273438 C 11.638803,20.85689 11.87031,20.775391 12,20.775391 c 0.12969,0 0.361197,0.0815 1.015625,0.382812 l 0.595703,0.273438 c 1.151495,0.530147 2.022114,0.939293 2.792969,1.160156 0.770854,0.220863 1.57873,0.232153 2.193359,-0.234375 0.614598,-0.466565 0.834493,-1.232764 0.871094,-2.054688 0.0366,-0.821923 -0.06466,-1.812999 -0.191406,-3.121093 l -0.06641,-0.675782 c -0.072,-0.743502 -0.07889,-1.012686 -0.03125,-1.166015 0.04763,-0.153165 0.199265,-0.358797 0.675782,-0.916016 l 0.433593,-0.505859 C 21.127515,12.937562 21.77036,12.19642 22.205075,11.505859 22.63979,10.815299 22.886759,10.059162 22.6582,9.3242188 22.429647,8.5892541 21.78623,8.1128054 21.039062,7.8183594 20.291895,7.5239134 19.356749,7.3192798 18.126953,7.0410156 L 17.490234,6.8964844 C 16.791247,6.7383372 16.56219,6.6658413 16.449219,6.5800781 16.336294,6.4943805 16.190108,6.2766132 15.830078,5.6308594 L 15.501953,5.0429687 C 14.868654,3.9068447 14.39334,3.0427531 13.898438,2.3964844 13.403535,1.7502157 12.773407,1.25 12,1.25 Z m 0,1.5 c 0.173492,0 0.333863,0.068741 0.708984,0.5585938 0.375122,0.4898526 0.849123,1.32872 1.482422,2.4648437 l 0.328125,0.5878906 c 0.35997,0.6456449 0.57301,1.0737206 1.021485,1.4140625 0.448228,0.3402764 0.918176,0.4258319 1.617187,0.5839844 l 0.636719,0.1445313 c 1.229801,0.2782653 2.137528,0.4899408 2.693359,0.7089843 0.555831,0.2190435 0.674238,0.3506962 0.738281,0.5566407 0.06404,0.2059261 0.03954,0.4123947 -0.291015,0.9374997 -0.330559,0.525106 -0.946714,1.255937 -1.785156,2.236328 l -0.433594,0.50586 c -0.476483,0.557179 -0.801984,0.909078 -0.96875,1.445312 -0.16656,0.53607 -0.101297,1.012364 -0.0293,1.75586 l 0.06445,0.675781 c 0.12675,1.308103 0.215624,2.278606 0.1875,2.910156 -0.02812,0.63155 -0.127895,0.810846 -0.279297,0.925781 -0.151469,0.114972 -0.300877,0.152218 -0.873047,-0.01172 -0.572169,-0.163937 -1.428575,-0.549927 -2.580078,-1.080079 L 13.642572,19.79492 C 12.988207,19.493635 12.564109,19.275391 12,19.275391 c -0.564109,0 -0.988207,0.218244 -1.642578,0.519531 l -0.5957032,0.27539 C 8.6102055,20.600464 7.7538054,20.986454 7.1816406,21.150391 6.6094758,21.314327 6.4600172,21.277056 6.3085937,21.162109 6.1571721,21.047164 6.05743,20.867871 6.0292969,20.236328 c -0.028133,-0.631543 0.06074,-1.602057 0.1875,-2.910156 L 6.28125,16.650391 C 6.3533,15.906891 6.4186854,15.430706 6.251953,14.894531 6.0852283,14.35833 5.7597143,14.00642 5.2832031,13.449219 L 4.8496094,12.943359 C 4.0111891,11.962965 3.3950156,11.23214 3.0644531,10.707031 2.7338906,10.181922 2.7093989,9.9754505 2.7734375,9.7695313 2.8374855,9.563573 2.9558961,9.4319325 3.5117188,9.2128906 4.0675414,8.9938488 4.9752389,8.7821711 6.2050781,8.5039063 L 6.8417969,8.359375 C 7.5407529,8.2012259 8.0106995,8.115698 8.4589844,7.7753906 8.9072603,7.4350901 9.1205254,7.0070441 9.4804688,6.3613281 L 9.8085938,5.7734375 C 10.441914,4.637312 10.915888,3.7984514 11.291016,3.3085938 11.666144,2.8187361 11.826511,2.75 12,2.75 Z"
     id="path1" />
</svg>
